<svg id="svg" xmlns="http://www.w3.org/2000/svg" xmlns:xlink="http://www.w3.org/1999/xlink" width="400" height="564.2585551330798" viewBox="0, 0, 400,564.2585551330798"><g id="svgg"><path id="path0" d="M206.008 3.422 C 205.152 5.304,203.636 6.678,202.639 6.475 C 201.642 6.272,198.587 9.430,195.850 13.493 C 189.012 23.644,171.430 42.035,167.314 43.342 C 163.807 44.455,160.112 47.091,154.171 52.718 L 150.700 56.006 151.586 51.577 C 152.183 48.588,151.857 47.148,150.583 47.148 C 149.443 47.148,149.010 45.942,149.490 44.106 C 150.622 39.778,149.203 40.337,141.445 47.278 C 132.481 55.297,114.026 69.153,110.646 70.403 C 109.183 70.945,107.985 72.013,107.985 72.778 C 107.985 73.542,104.259 75.991,99.704 78.219 C 95.150 80.447,86.292 87.200,80.019 93.226 L 68.614 104.183 67.731 98.364 C 67.178 94.722,66.150 92.777,64.983 93.164 C 61.527 94.309,43.402 119.948,36.529 133.412 C 32.780 140.758,28.208 147.978,26.369 149.457 C 24.530 150.936,20.634 157.184,17.711 163.341 C 14.788 169.499,10.555 176.379,8.303 178.631 C 4.776 182.158,4.341 183.554,5.164 188.701 C 5.952 193.628,5.679 194.677,3.608 194.677 C 1.493 194.677,1.237 195.860,1.986 202.182 C 2.547 206.917,2.275 209.888,1.250 210.230 C -0.735 210.892,1.107 223.574,3.188 223.574 C 3.958 223.574,3.727 224.988,2.674 226.715 C 1.020 229.430,1.225 230.236,4.183 232.662 C 6.882 234.876,7.605 237.039,7.605 242.905 C 7.605 246.996,8.373 251.110,9.312 252.049 C 10.262 252.999,11.561 262.744,12.242 274.026 C 12.915 285.175,14.191 298.403,15.079 303.422 C 15.966 308.441,16.739 316.654,16.796 321.673 C 16.909 331.522,19.510 348.104,21.330 350.570 C 26.271 357.267,30.548 376.989,29.592 388.660 C 28.822 398.062,29.065 401.268,30.645 402.514 C 33.631 404.869,42.314 406.233,43.377 404.513 C 46.106 400.097,53.935 414.597,58.597 432.700 C 60.105 438.555,61.834 444.030,62.439 444.867 C 63.045 445.703,64.420 450.494,65.496 455.513 C 70.942 480.912,95.113 514.050,119.677 529.794 C 122.866 531.838,130.266 537.708,136.122 542.838 C 156.608 560.787,169.873 564.761,206.612 563.954 C 250.065 563.001,259.849 557.815,307.792 510.329 C 343.099 475.359,341.515 477.889,349.153 444.252 C 352.115 431.206,355.224 419.282,356.062 417.755 C 356.900 416.227,357.971 411.721,358.442 407.741 C 359.500 398.806,363.122 395.804,369.603 398.488 C 379.753 402.692,380.958 401.066,381.268 382.741 C 381.480 370.194,382.117 365.612,383.929 363.610 C 385.240 362.162,386.312 359.127,386.312 356.866 C 386.312 354.604,387.317 350.347,388.546 347.406 C 392.102 338.896,394.437 316.969,393.149 304.193 C 390.852 281.419,392.855 247.176,396.405 248.538 C 399.483 249.719,400.601 245.739,398.714 240.323 C 397.745 237.546,397.684 235.741,398.558 235.741 C 401.004 235.741,400.155 228.311,396.952 221.682 C 394.952 217.541,394.419 214.859,395.402 213.876 C 396.385 212.893,395.638 210.724,393.230 207.566 C 391.211 204.919,388.434 198.412,387.059 193.104 C 385.683 187.797,383.242 181.780,381.633 179.735 C 379.657 177.222,378.707 173.615,378.707 168.616 C 378.707 162.541,378.224 161.217,376.005 161.217 C 373.771 161.217,373.404 160.165,373.884 155.133 C 374.244 151.356,373.827 149.049,372.783 149.049 C 371.859 149.049,371.103 150.418,371.103 152.091 C 371.103 153.764,370.528 155.133,369.826 155.133 C 368.111 155.133,364.774 147.634,365.771 146.021 C 366.206 145.318,365.833 142.826,364.943 140.483 C 363.742 137.327,362.995 136.756,362.055 138.277 C 361.153 139.736,360.484 138.952,359.740 135.564 C 359.165 132.943,358.120 130.798,357.419 130.798 C 356.718 130.798,354.890 128.232,353.357 125.095 C 351.824 121.958,349.544 119.392,348.289 119.392 C 344.758 119.392,335.920 108.153,330.038 96.181 C 327.110 90.223,323.859 85.308,322.814 85.259 C 321.768 85.211,320.913 84.526,320.913 83.737 C 320.913 81.433,304.054 63.878,301.841 63.878 C 300.733 63.878,298.401 61.876,296.658 59.428 C 293.730 55.316,279.891 44.106,277.743 44.106 C 277.228 44.106,276.806 46.103,276.806 48.542 C 276.806 57.656,275.768 56.951,238.221 22.347 C 234.766 19.163,228.175 14.069,223.574 11.028 C 218.973 7.987,214.315 4.262,213.222 2.750 C 210.541 -0.959,207.889 -0.712,206.008 3.422 M218.922 16.342 C 224.073 22.591,229.926 39.816,232.748 57.034 C 233.708 62.890,235.165 68.948,235.987 70.497 C 244.234 86.041,239.056 132.319,229.069 132.319 C 228.187 132.319,228.309 131.539,229.354 130.494 C 230.487 129.361,231.111 124.316,231.000 117.186 C 230.826 106.016,230.787 105.904,229.583 113.080 C 228.902 117.137,227.827 121.586,227.194 122.966 C 226.561 124.346,226.001 126.784,225.949 128.384 C 225.898 129.984,223.802 132.432,221.293 133.823 C 215.211 137.193,214.192 142.966,219.679 142.966 C 222.948 142.966,223.360 143.408,222.160 145.627 C 212.154 164.125,217.241 164.767,229.030 146.494 C 234.668 137.756,240.057 131.696,247.136 126.132 C 252.680 121.775,259.570 115.127,262.448 111.358 C 265.326 107.589,267.681 105.411,267.681 106.517 C 267.681 109.794,264.129 118.631,262.812 118.631 C 262.144 118.631,261.597 119.562,261.597 120.700 C 261.597 121.838,259.875 125.307,257.770 128.409 C 255.664 131.511,254.275 134.588,254.682 135.246 C 255.088 135.904,253.190 139.108,250.462 142.366 C 240.458 154.316,233.871 164.574,236.790 163.658 C 238.722 163.052,240.068 163.920,241.302 166.568 L 243.060 170.342 233.131 170.342 C 224.997 170.342,223.508 169.973,224.896 168.301 C 228.977 163.383,221.674 162.960,211.704 167.536 C 203.391 171.351,188.343 174.901,176.426 175.857 L 168.061 176.528 177.186 172.682 C 182.205 170.566,186.818 168.832,187.437 168.828 C 190.369 168.810,209.911 154.883,209.023 153.446 C 208.318 152.305,207.533 152.315,206.368 153.480 C 205.459 154.389,203.260 155.133,201.482 155.133 C 196.560 155.133,176.646 162.431,167.769 167.488 C 159.248 172.341,144.487 175.193,144.487 171.985 C 144.487 170.983,145.136 170.564,145.930 171.054 C 147.727 172.165,161.217 168.876,161.217 167.326 C 161.217 166.703,164.197 165.055,167.839 163.664 C 171.481 162.273,179.026 158.073,184.605 154.332 C 190.184 150.590,195.120 147.529,195.575 147.529 C 197.174 147.529,213.026 133.156,215.366 129.586 C 218.160 125.322,217.379 123.884,213.456 126.068 C 211.911 126.929,208.388 128.722,205.628 130.054 L 200.609 132.476 207.055 120.610 C 210.601 114.085,215.105 104.639,217.064 99.620 L 220.627 90.494 219.988 97.879 L 219.349 105.263 222.046 101.152 C 231.258 87.108,229.808 41.753,219.630 25.631 C 217.617 22.442,215.970 19.017,215.970 18.021 C 215.970 17.024,214.837 14.957,213.452 13.428 C 212.068 11.898,211.676 10.646,212.581 10.646 C 213.487 10.646,216.340 13.210,218.922 16.342 M203.043 52.091 C 199.979 67.338,197.379 72.629,188.546 81.593 C 179.679 90.592,145.766 118.631,143.749 118.631 C 141.045 118.631,104.235 150.369,105.487 151.621 C 106.332 152.466,126.150 143.480,129.208 140.865 C 130.501 139.759,134.639 137.221,138.403 135.225 C 145.971 131.211,159.280 121.590,171.408 111.368 L 179.318 104.701 176.780 111.286 C 174.172 118.052,157.870 135.361,154.106 135.361 C 153.012 135.361,151.262 136.730,150.217 138.403 C 149.173 140.076,147.752 141.445,147.061 141.445 C 146.370 141.445,143.455 143.237,140.583 145.428 C 137.711 147.618,135.361 148.969,135.361 148.430 C 135.361 147.891,133.244 148.545,130.657 149.883 C 125.270 152.669,123.300 151.833,126.399 148.077 C 131.219 142.234,116.110 152.679,94.900 169.852 C 91.468 172.631,88.046 174.907,87.296 174.909 C 86.545 174.911,81.904 177.648,76.981 180.992 C 72.058 184.336,67.445 187.072,66.729 187.072 C 64.855 187.072,74.540 171.762,77.015 170.812 C 78.155 170.375,79.087 169.063,79.087 167.898 C 79.087 166.733,79.672 165.779,80.386 165.779 C 81.647 165.779,85.558 161.853,110.059 135.995 C 119.221 126.324,122.615 123.701,125.960 123.701 C 135.894 123.701,193.156 69.207,193.156 59.754 C 193.156 58.936,194.476 57.071,196.090 55.611 C 197.704 54.150,200.131 50.622,201.485 47.770 C 204.948 40.472,205.224 41.237,203.043 52.091 M264.989 63.498 C 266.278 64.962,268.690 68.897,270.350 72.243 C 272.010 75.589,274.467 80.418,275.811 82.973 C 278.227 87.568,285.874 112.365,285.994 115.993 C 286.082 118.685,294.876 136.425,295.218 134.601 C 295.374 133.764,295.617 124.686,295.758 114.426 C 295.899 104.166,296.661 95.126,297.451 94.337 C 299.321 92.466,306.406 102.684,306.096 106.804 C 305.970 108.479,306.297 109.419,306.823 108.893 C 307.349 108.367,309.261 110.856,311.072 114.424 C 312.882 117.993,316.468 124.677,319.040 129.278 C 321.612 133.878,324.205 140.380,324.802 143.726 C 326.053 150.738,336.110 172.819,342.121 181.749 C 347.511 189.757,353.176 200.943,352.289 201.830 C 351.555 202.565,343.123 189.927,337.685 179.941 C 335.949 176.753,332.876 171.407,330.856 168.061 C 328.835 164.715,324.997 156.502,322.325 149.810 C 319.653 143.118,317.011 136.958,316.454 136.122 C 315.896 135.285,313.763 129.299,311.713 122.818 C 306.312 105.749,305.326 108.016,305.927 136.125 C 306.222 149.930,306.210 160.461,305.900 159.527 C 305.518 158.380,304.940 158.470,304.114 159.806 C 302.156 162.975,299.008 159.311,294.985 149.182 C 291.676 140.852,291.279 140.425,289.678 143.473 C 288.533 145.653,288.452 147.424,289.438 148.706 C 291.211 151.012,289.526 153.277,287.561 151.229 C 285.137 148.703,276.806 131.258,276.806 128.709 C 276.806 123.541,279.670 126.588,283.415 135.741 C 287.950 146.825,288.264 146.097,285.220 131.559 C 279.242 103.011,272.787 84.905,270.592 90.524 C 269.945 92.181,269.363 93.194,269.300 92.776 C 267.166 78.754,265.564 73.014,262.485 68.361 C 257.817 61.307,259.752 57.548,264.989 63.498 M139.924 62.962 C 139.924 64.529,130.000 83.308,125.489 90.277 C 116.370 104.366,91.736 124.715,83.798 124.715 C 82.198 124.715,80.485 126.205,79.864 128.137 C 78.910 131.109,78.670 131.200,78.041 128.826 C 77.035 125.034,86.180 114.296,100.102 102.923 C 119.002 87.483,126.710 79.816,132.319 70.878 C 136.817 63.711,139.924 60.477,139.924 62.962 M62.357 112.243 C 62.357 112.913,61.767 114.110,61.045 114.905 C 59.952 116.108,53.232 142.197,53.232 145.237 C 53.232 145.759,54.087 145.673,55.133 145.045 C 56.359 144.308,56.272 144.842,54.887 146.548 C 53.190 148.639,52.463 148.780,51.419 147.220 C 50.575 145.959,50.395 146.620,50.922 149.049 C 51.614 152.243,50.887 153.274,46.381 155.493 L 41.017 158.135 42.031 153.973 C 42.589 151.683,45.256 145.361,47.957 139.924 C 50.657 134.487,53.271 128.287,53.766 126.147 C 55.977 116.575,62.357 106.250,62.357 112.243 M261.597 153.612 C 261.597 155.186,262.281 156.897,263.118 157.414 C 266.063 159.235,264.583 160.890,259.479 161.486 C 251.679 162.397,249.000 157.414,254.668 152.539 C 259.119 148.710,261.597 149.094,261.597 153.612 M52.306 166.160 C 51.698 167.205,49.262 170.555,46.893 173.603 C 44.524 176.651,42.586 179.624,42.586 180.209 C 42.586 182.042,32.806 197.719,31.663 197.719 C 30.519 197.719,33.317 188.378,34.852 187.072 C 35.344 186.654,36.764 184.340,38.008 181.931 C 39.252 179.521,42.903 174.559,46.120 170.904 C 51.835 164.411,54.520 162.352,52.306 166.160 M298.672 188.271 C 302.752 190.121,306.688 191.635,307.418 191.635 C 308.148 191.635,308.745 192.341,308.745 193.204 C 308.745 194.066,309.943 195.223,311.407 195.774 C 318.056 198.275,333.491 212.478,336.329 218.707 C 337.968 222.303,340.302 225.628,341.517 226.094 C 342.732 226.560,343.726 227.598,343.726 228.401 C 343.726 229.204,345.458 232.131,347.575 234.907 C 351.853 240.515,354.340 255.901,354.361 276.882 C 354.368 283.544,355.113 289.105,356.135 290.128 C 358.669 292.662,358.832 348.025,356.320 352.989 C 353.778 358.013,349.715 380.882,351.265 381.440 C 351.955 381.689,351.256 387.848,349.711 395.128 C 348.166 402.409,346.116 412.129,345.155 416.730 C 344.194 421.331,342.819 426.464,342.100 428.137 C 340.418 432.046,336.124 453.556,336.115 458.111 C 336.098 467.092,286.456 519.507,264.639 533.580 C 262.548 534.929,258.441 537.908,255.513 540.199 C 237.241 554.502,173.387 555.606,153.075 541.970 C 149.606 539.641,146.278 537.878,145.679 538.052 C 145.080 538.226,138.920 533.013,131.990 526.468 C 125.061 519.922,113.916 509.767,107.224 503.902 C 100.532 498.036,93.346 490.972,91.255 488.203 C 89.163 485.434,86.768 482.421,85.932 481.508 C 85.095 480.595,82.220 473.346,79.543 465.399 C 76.865 457.452,72.907 445.991,70.747 439.930 C 68.586 433.868,66.094 424.971,65.208 420.158 C 64.322 415.345,63.050 410.722,62.382 409.886 C 61.713 409.049,60.390 404.579,59.442 399.952 C 58.493 395.324,56.345 387.112,54.669 381.701 C 52.879 375.924,51.272 365.270,50.775 355.894 C 50.310 347.110,49.335 339.207,48.608 338.330 C 46.360 335.620,46.064 272.722,48.289 270.496 C 49.411 269.373,50.190 264.633,50.190 258.936 C 50.190 253.082,51.143 247.436,52.609 244.600 C 54.985 240.006,54.953 231.443,52.531 224.154 C 51.418 220.804,50.529 221.420,78.327 206.301 C 80.837 204.936,88.707 201.622,95.817 198.936 C 102.928 196.250,109.087 193.611,109.506 193.071 C 113.805 187.520,171.630 184.570,270.722 184.848 C 288.585 184.899,292.219 185.343,298.672 188.271 M357.414 196.198 C 357.414 198.707,356.730 200.760,355.894 200.760 C 355.057 200.760,354.373 198.707,354.373 196.198 C 354.373 193.688,355.057 191.635,355.894 191.635 C 356.730 191.635,357.414 193.688,357.414 196.198 M360.456 204.867 C 360.456 208.335,359.918 209.940,359.052 209.049 C 357.778 207.738,358.489 199.240,359.873 199.240 C 360.194 199.240,360.456 201.772,360.456 204.867 M18.587 242.230 C 15.726 248.337,14.275 234.650,16.350 221.125 C 17.433 214.061,17.532 214.374,18.312 227.376 C 18.763 234.905,18.887 241.589,18.587 242.230 M39.544 229.658 C 39.608 239.062,41.870 242.312,43.247 234.976 C 43.827 231.880,44.640 229.684,45.052 230.096 C 45.464 230.508,44.686 236.224,43.324 242.799 C 39.142 262.981,38.184 272.521,39.108 284.791 C 39.764 293.515,39.514 296.578,38.146 296.578 C 36.987 296.578,36.658 295.439,37.266 293.525 C 37.799 291.846,37.160 288.319,35.847 285.687 C 33.131 280.241,32.629 264.557,35.093 262.094 C 36.066 261.121,36.834 252.155,36.994 239.904 C 37.234 221.519,39.428 212.701,39.544 229.658 M269.567 254.784 C 262.658 255.863,254.856 257.496,252.230 258.411 C 249.604 259.327,246.249 260.076,244.776 260.076 C 238.269 260.076,219.770 270.481,218.016 275.126 C 214.010 285.738,223.264 294.511,233.084 289.411 C 236.637 287.566,244.041 285.040,249.538 283.797 C 255.035 282.555,263.102 280.132,267.465 278.412 C 271.828 276.692,278.412 275.285,282.096 275.285 C 285.780 275.285,289.217 274.601,289.734 273.764 C 290.894 271.886,319.937 271.729,323.595 273.580 C 330.532 277.092,345.247 279.594,345.247 277.262 C 345.247 273.534,340.763 267.191,334.980 262.738 C 329.997 258.901,329.841 258.555,333.088 258.555 C 339.008 258.555,335.469 256.949,324.487 254.651 C 311.958 252.030,286.798 252.090,269.567 254.784 M79.848 258.811 C 67.718 263.302,61.170 267.496,62.680 269.807 C 62.921 270.176,61.551 272.145,59.636 274.184 C 57.720 276.223,55.782 280.555,55.327 283.812 C 54.870 287.092,55.066 289.005,55.768 288.101 C 64.414 276.951,139.868 276.681,147.626 287.772 C 151.354 293.102,172.534 293.637,174.084 288.441 C 176.504 280.327,176.604 276.806,174.413 276.806 C 173.206 276.806,171.902 275.608,171.517 274.144 C 170.860 271.651,167.085 270.079,148.289 264.472 C 144.943 263.473,140.742 261.706,138.954 260.543 C 134.655 257.748,86.528 256.337,79.848 258.811 M275.285 291.186 C 262.999 294.669,251.898 300.632,241.445 309.363 C 233.216 316.236,228.573 322.433,231.653 322.433 C 233.580 322.433,245.989 315.436,247.540 313.475 C 249.196 311.381,249.339 311.631,248.528 315.209 C 247.609 319.260,247.781 319.392,253.985 319.392 L 260.391 319.392 255.671 324.768 C 250.334 330.846,249.990 332.894,253.248 339.194 C 263.567 359.150,276.198 331.509,268.378 306.084 C 266.783 300.895,302.069 302.738,310.685 308.293 C 313.659 310.211,328.660 313.105,336.122 313.200 L 342.966 313.288 338.490 310.337 C 336.028 308.715,330.553 306.576,326.323 305.586 C 322.092 304.595,317.947 303.309,317.110 302.729 C 314.667 301.033,304.070 298.340,295.437 297.221 C 287.586 296.203,285.241 294.289,289.734 292.565 C 298.591 289.167,286.484 288.011,275.285 291.186 M111.027 294.761 C 111.027 295.648,112.395 296.807,114.068 297.338 C 116.971 298.260,118.367 301.088,115.970 301.189 C 108.039 301.524,82.890 305.856,81.644 307.101 C 80.740 308.005,78.731 308.745,77.179 308.745 C 73.289 308.745,60.837 314.569,60.837 316.388 C 60.837 318.633,70.161 318.145,74.944 315.650 C 78.719 313.681,93.469 310.266,98.199 310.266 C 99.589 310.266,99.553 311.622,98.048 315.970 C 96.074 321.670,96.076 321.673,100.624 322.433 L 105.175 323.194 100.630 327.533 C 95.398 332.527,95.947 336.814,102.758 344.159 C 112.755 354.941,122.039 333.332,116.502 312.167 L 115.209 307.224 123.673 307.224 C 130.239 307.224,134.119 308.286,140.974 311.958 C 165.433 325.061,171.482 327.023,165.612 319.950 C 154.292 306.311,111.027 286.345,111.027 294.761 M384.841 296.198 C 384.868 296.825,385.520 302.129,386.289 307.985 C 387.832 319.736,385.984 336.531,382.390 343.420 C 381.211 345.680,380.243 348.947,380.238 350.680 C 380.232 352.413,379.109 357.115,377.742 361.129 C 375.954 366.375,375.495 371.287,376.108 378.602 C 377.130 390.794,376.016 393.590,371.306 390.649 C 369.521 389.534,368.061 387.524,368.061 386.182 C 368.061 384.840,366.726 382.533,365.094 381.056 C 362.464 378.677,362.369 378.002,364.257 375.117 C 365.428 373.327,366.856 368.783,367.431 365.019 C 368.006 361.255,369.182 357.282,370.045 356.191 C 370.907 355.099,372.011 342.664,372.499 328.556 C 373.343 304.104,373.556 302.723,377.071 298.982 C 380.583 295.243,384.734 293.756,384.841 296.198 M32.501 306.084 C 33.006 307.966,33.428 312.962,33.439 317.186 C 33.451 321.411,34.048 325.517,34.766 326.312 C 35.484 327.106,36.939 336.996,37.999 348.289 C 39.058 359.582,40.612 369.683,41.452 370.735 C 42.292 371.788,42.603 374.968,42.143 377.803 C 41.526 381.607,42.071 383.777,44.228 386.091 C 47.807 389.933,47.897 392.089,44.631 395.698 C 39.487 401.382,36.502 399.325,36.502 390.093 C 36.502 385.481,35.902 380.519,35.169 379.067 C 34.436 377.614,32.748 370.951,31.418 364.259 C 30.088 357.567,27.628 347.300,25.951 341.445 C 22.781 330.377,21.628 315.162,24.276 319.349 C 25.476 321.247,25.855 321.162,26.765 318.790 C 27.753 316.217,28.010 316.281,29.976 319.593 C 31.974 322.958,32.054 322.750,31.196 316.407 C 30.037 307.829,29.663 307.520,25.813 311.952 L 22.653 315.589 23.614 311.787 C 24.143 309.696,24.910 306.787,25.318 305.323 C 26.390 301.482,31.411 302.013,32.501 306.084 M375.585 311.238 C 373.726 316.129,375.175 318.117,377.891 314.402 C 379.599 312.066,379.990 312.015,380.761 314.024 C 382.145 317.629,384.791 316.767,384.791 312.710 C 384.791 309.406,382.307 307.224,378.545 307.224 C 377.756 307.224,376.424 309.030,375.585 311.238 M324.220 319.772 C 322.517 321.654,319.030 325.672,316.470 328.701 C 298.562 349.894,271.434 357.098,251.481 345.958 C 244.381 341.994,240.173 342.184,243.600 346.313 C 250.240 354.315,281.670 361.558,285.171 355.894 C 287.179 352.644,292.015 354.256,292.015 358.175 C 292.015 360.266,292.541 361.977,293.183 361.977 C 294.865 361.977,324.412 331.701,328.293 326.001 C 334.127 317.432,330.858 312.433,324.220 319.772 M69.962 324.100 C 69.962 327.859,75.975 335.853,87.833 347.856 C 94.734 354.842,100.380 361.140,100.380 361.851 C 100.380 362.562,101.749 363.501,103.422 363.939 C 105.710 364.537,106.464 363.985,106.464 361.714 C 106.464 359.239,107.219 358.838,110.646 359.494 C 127.313 362.686,130.775 362.444,140.718 357.398 C 151.231 352.061,159.088 345.247,154.727 345.247 C 153.376 345.247,151.861 345.911,151.359 346.722 C 150.091 348.774,130.739 354.373,124.912 354.373 C 108.611 354.373,88.907 344.107,78.162 330.017 C 72.501 322.594,69.962 320.762,69.962 324.100 M193.675 342.506 C 194.156 344.345,193.796 346.757,192.876 347.866 C 190.301 350.968,192.175 351.544,196.037 348.838 C 198.475 347.131,199.020 345.940,197.883 344.803 C 196.746 343.667,196.764 342.596,197.941 341.177 C 199.243 339.608,198.860 339.163,196.207 339.163 C 193.448 339.163,192.967 339.798,193.675 342.506 M195.213 354.362 C 191.192 355.985,189.164 358.935,192.070 358.935 C 193.244 358.935,195.444 357.567,196.958 355.894 C 199.998 352.534,199.918 352.464,195.213 354.362 M192.377 363.468 C 192.787 364.131,192.103 365.520,190.858 366.554 C 186.925 369.818,188.405 371.278,193.156 368.821 C 198.461 366.078,198.962 364.178,194.675 363.057 C 193.001 362.619,191.966 362.804,192.377 363.468 M190.730 374.366 C 187.848 377.611,187.851 377.619,191.255 375.833 C 193.137 374.846,194.677 373.377,194.677 372.570 C 194.677 370.409,193.949 370.741,190.730 374.366 M192.042 378.361 C 188.123 381.394,184.589 433.460,188.302 433.460 C 191.444 433.460,193.171 427.638,194.159 413.714 C 194.698 406.113,195.720 399.535,196.429 399.096 C 198.019 398.114,198.162 375.652,196.578 375.699 C 195.951 375.718,193.909 376.916,192.042 378.361 M174.144 466.108 C 163.989 468.319,153.612 473.746,153.612 476.846 C 153.612 480.277,164.212 487.816,171.645 489.671 C 175.529 490.641,181.182 492.078,184.207 492.865 C 213.552 500.502,274.370 479.121,247.532 470.603 C 246.066 470.138,244.867 469.151,244.867 468.410 C 244.867 463.803,192.549 462.099,174.144 466.108 M236.932 470.639 C 240.694 472.681,238.380 472.887,211.101 472.943 C 194.622 472.976,177.635 473.755,173.354 474.673 C 163.920 476.697,162.332 475.762,169.107 472.175 C 178.445 467.230,228.561 466.096,236.932 470.639 " stroke="none" fill="hsl(186, 70%, 12%)" fill-rule="evenodd"></path></g></svg>